HIERARCHY
ROOT Hips
{
	OFFSET -0.001795 -0.223333 0.028219
	CHANNELS 6 Xposition Yposition Zposition Zrotation Yrotation Xrotation 
	JOINT LeftUpLeg
	{
		OFFSET 0.069520 -0.091406 -0.006815
		CHANNELS 3 Zrotation Yrotation Xrotation
		JOINT LeftLeg
		{
			OFFSET 0.034277 -0.375199 -0.004496
			CHANNELS 3 Zrotation Yrotation Xrotation
			JOINT LeftFoot
			{
				OFFSET -0.013596 -0.397961 -0.043693
				CHANNELS 3 Zrotation Yrotation Xrotation
				JOINT LeftToe
				{
					OFFSET 0.026358 -0.055791 0.119288
					CHANNELS 3 Zrotation Yrotation Xrotation
					End Site
					{
						OFFSET 0.000000 0.000000 0.000000
					}
				}
			}
		}
	}
	JOINT RightUpLeg
	{
		OFFSET -0.067670 -0.090522 -0.004320
		CHANNELS 3 Zrotation Yrotation Xrotation
		JOINT RightLeg
		{
			OFFSET -0.038290 -0.382569 -0.008850
			CHANNELS 3 Zrotation Yrotation Xrotation
			JOINT RightFoot
			{
				OFFSET 0.015774 -0.398415 -0.042312
				CHANNELS 3 Zrotation Yrotation Xrotation
				JOINT RightToe
				{
					OFFSET -0.025372 -0.048144 0.123348
					CHANNELS 3 Zrotation Yrotation Xrotation
					End Site
					{
						OFFSET 0.000000 0.000000 0.000000
					}
				}
			}
		}
	}
	JOINT Spine
	{
		OFFSET -0.002533 0.108963 -0.026696
		CHANNELS 3 Zrotation Yrotation Xrotation
		JOINT Spine1
		{
			OFFSET 0.005487 0.135180 0.001092
			CHANNELS 3 Zrotation Yrotation Xrotation
			JOINT Spine2
			{
				OFFSET 0.001457 0.052922 0.025425
				CHANNELS 3 Zrotation Yrotation Xrotation
				JOINT Neck
				{
					OFFSET -0.002778 0.213870 -0.042857
					CHANNELS 3 Zrotation Yrotation Xrotation
					JOINT Head
					{
						OFFSET 0.005152 0.064970 0.051349
						CHANNELS 3 Zrotation Yrotation Xrotation
						End Site
						{
							OFFSET 0.000000 0.000000 0.000000
						}
					}
				}
				JOINT LeftShoulder
				{
					OFFSET 0.078845 0.121749 -0.034090
					CHANNELS 3 Zrotation Yrotation Xrotation
					JOINT LeftArm
					{
						OFFSET 0.090977 0.030469 -0.008868
						CHANNELS 3 Zrotation Yrotation Xrotation
						JOINT LeftForeArm
						{
							OFFSET 0.259612 -0.012772 -0.027456
							CHANNELS 3 Zrotation Yrotation Xrotation
							JOINT LeftHand
							{
								OFFSET 0.249234 0.008986 -0.001171
								CHANNELS 3 Zrotation Yrotation Xrotation
								End Site
								{
									OFFSET 0.000000 0.000000 0.000000
								}
							}
						}
					}
				}
				JOINT RightShoulder
				{
					OFFSET -0.081759 0.118833 -0.038615
					CHANNELS 3 Zrotation Yrotation Xrotation
					JOINT RightArm
					{
						OFFSET -0.096012 0.032551 -0.009143
						CHANNELS 3 Zrotation Yrotation Xrotation
						JOINT RightForeArm
						{
							OFFSET -0.253742 -0.013329 -0.021401
							CHANNELS 3 Zrotation Yrotation Xrotation
							JOINT RightHand
							{
								OFFSET -0.255298 0.007772 -0.005559
								CHANNELS 3 Zrotation Yrotation Xrotation
								End Site
								{
									OFFSET 0.000000 0.000000 0.000000
								}
							}
						}
					}
				}
			}
		}
	}
}
MOTION
Frames: 10
Frame Time: 0.050000
0.000000 0.766898 0.000000 -2.225897 -1.462781 15.386714 10.589032 0.490250 -58.039054 -13.694285 9.334991 66.365107 10.970641 24.120880 -18.045591 0.000000 0.000000 0.000000 -6.997356 3.256193 -59.441851 16.749411 -10.772584 68.776971 -11.210368 -30.647717 -11.783951 0.000000 0.000000 0.000000 -4.702038 0.463947 45.618390 7.852688 -0.486246 -30.268459 1.481460 4.019133 26.935690 -5.072988 4.643241 -39.418956 0.000000 0.000000 0.000000 -34.715772 -10.348045 3.694543 -35.891324 -20.406000 -0.253818 14.593028 -43.231787 -3.481613 0.000000 0.000000 0.000000 25.436864 13.041306 8.133135 40.876320 19.737416 -0.150928 -16.770701 37.153194 -3.157720 0.000000 0.000000 0.000000 
-0.000427 0.766930 0.004077 -2.896046 -2.493587 16.726392 11.854715 1.544515 -58.211209 -12.657544 8.750636 65.580536 10.334237 22.184005 -17.873532 0.000000 0.000000 0.000000 -5.968953 4.326650 -61.525935 17.064667 -10.783571 69.353562 -11.943120 -31.322190 -6.962102 0.000000 0.000000 0.000000 -4.669422 0.693159 46.537767 7.518480 -0.302387 -31.525402 1.541451 3.887322 26.901271 -6.285253 4.867534 -43.993881 0.000000 0.000000 0.000000 -34.887310 -8.093850 2.272245 -37.028422 -22.537065 0.296548 13.726569 -40.394518 -2.754332 0.000000 0.000000 0.000000 25.434815 12.866803 7.840431 41.239943 18.764144 -0.361198 -17.009483 38.761663 -3.397063 0.000000 0.000000 0.000000 
-0.000853 0.769190 0.007921 -1.770230 -0.940646 17.204409 10.688159 0.335662 -57.241092 -12.840038 8.084276 63.264756 11.019887 25.138223 -22.085044 0.000000 0.000000 0.000000 -6.877785 3.185916 -60.225140 17.028931 -11.001379 67.738346 -11.834755 -32.214836 -10.638476 0.000000 0.000000 0.000000 -3.893221 -0.012529 46.085223 6.233108 -0.260304 -29.506568 1.279066 2.559143 24.536182 -6.722272 5.023072 -40.063110 0.000000 0.000000 0.000000 -36.228831 -8.679294 2.917818 -37.580906 -22.520308 0.486356 12.845036 -36.885885 -2.199610 0.000000 0.000000 0.000000 27.909381 13.428772 8.097150 39.953855 18.259728 -0.308485 -15.835490 37.344581 -3.040816 0.000000 0.000000 0.000000 
-0.001297 0.776726 0.011290 -1.867124 -0.700650 17.696944 9.450803 -0.363709 -56.642303 -10.884920 6.290825 61.841838 10.566098 23.674059 -22.865753 0.000000 0.000000 0.000000 -6.471823 3.351266 -60.801270 16.717085 -10.655741 66.837516 -11.971650 -31.572174 -7.629248 0.000000 0.000000 0.000000 -4.186469 0.077317 46.647172 6.394848 -0.142583 -31.140146 0.980018 2.364711 25.164902 -6.634099 4.950575 -41.095067 0.000000 0.000000 0.000000 -36.716830 -7.371281 1.909278 -38.237076 -22.351317 0.438522 12.491087 -35.861886 -1.993668 0.000000 0.000000 0.000000 27.646432 13.248311 7.929486 39.428007 17.198176 -0.673010 -15.273182 37.340230 -2.907361 0.000000 0.000000 0.000000 
-0.001768 0.782141 0.014062 -1.574075 -0.236245 17.945408 9.167369 -0.661111 -55.304155 -10.999018 6.009951 59.638202 10.908039 25.021981 -22.847124 0.000000 0.000000 0.000000 -6.231081 3.232153 -59.411582 15.563376 -9.581068 65.264991 -11.625350 -31.025010 -8.776936 0.000000 0.000000 0.000000 -4.602705 0.186487 46.306248 6.655417 -0.233146 -30.478664 1.115918 2.330860 25.243420 -7.479779 5.269959 -41.318466 0.000000 0.000000 0.000000 -36.058951 -7.681729 2.071796 -40.229270 -22.581353 0.684187 11.983506 -33.623526 -1.707624 0.000000 0.000000 0.000000 27.127556 13.478874 8.112405 40.108993 18.137949 -0.377114 -16.365694 35.999155 -3.078484 0.000000 0.000000 0.000000 
-0.002206 0.787371 0.016105 -1.459504 0.287641 18.234841 9.060769 -0.868856 -54.309480 -10.889483 5.654239 58.246918 10.381124 23.195551 -23.372141 0.000000 0.000000 0.000000 -6.453025 2.907745 -58.623600 15.193007 -9.309937 64.320902 -11.208624 -30.010200 -9.319099 0.000000 0.000000 0.000000 -4.563584 0.056280 47.000669 6.616889 -0.143135 -31.399262 0.962570 2.184387 25.254784 -7.686999 5.323576 -41.845293 0.000000 0.000000 0.000000 -36.100550 -7.300766 1.715526 -40.808541 -21.892895 0.546798 10.965814 -32.750269 -1.383267 0.000000 0.000000 0.000000 26.993444 13.239432 7.969958 40.414797 17.897929 -0.426103 -16.143466 35.698922 -2.972245 0.000000 0.000000 0.000000 
-0.002623 0.793525 0.017797 -1.412530 0.422939 18.171326 9.044236 -0.912219 -53.620762 -10.616117 5.338303 57.333774 10.223249 22.525913 -22.464608 0.000000 0.000000 0.000000 -6.246057 2.910520 -57.443158 14.730578 -8.830466 63.354166 -10.942194 -29.119045 -8.853100 0.000000 0.000000 0.000000 -4.639295 0.066080 47.175329 6.395832 -0.132253 -31.112988 0.935149 2.100646 25.315590 -7.563814 5.299083 -41.301366 0.000000 0.000000 0.000000 -35.607338 -7.095427 1.591633 -41.875519 -21.752280 0.567141 11.384306 -32.429264 -1.472458 0.000000 0.000000 0.000000 26.494976 13.154410 7.858924 40.814313 17.946153 -0.392355 -15.953238 36.034836 -2.935350 0.000000 0.000000 0.000000 
-0.003152 0.798850 0.019175 -1.142280 1.059095 18.252942 8.683518 -1.251077 -52.766326 -10.405410 4.924758 56.352821 10.044183 21.859287 -22.466884 0.000000 0.000000 0.000000 -6.008299 2.780421 -56.543467 13.993651 -8.338618 62.573300 -10.809684 -28.781966 -9.093963 0.000000 0.000000 0.000000 -4.392640 -0.200511 47.157844 6.285837 -0.113404 -31.105207 0.616670 1.903610 25.693121 -7.186767 5.204111 -40.592005 0.000000 0.000000 0.000000 -35.613136 -7.476795 1.862021 -41.475138 -21.323761 0.375459 11.561892 -32.684178 -1.549917 0.000000 0.000000 0.000000 26.671218 13.138838 7.926240 40.452414 17.749680 -0.530376 -15.543118 36.254521 -2.828951 0.000000 0.000000 0.000000 
-0.003861 0.803526 0.019971 -0.996406 1.304164 18.158380 8.660527 -1.324315 -52.354431 -10.548439 4.897030 55.675931 10.093442 21.990311 -21.770795 0.000000 0.000000 0.000000 -5.909137 2.727651 -56.033356 13.685548 -8.081821 61.925995 -10.770475 -28.467806 -8.353954 0.000000 0.000000 0.000000 -4.587516 -0.162231 47.489466 6.385818 -0.165921 -30.587162 0.487863 1.851324 25.344184 -7.022466 5.150765 -40.331134 0.000000 0.000000 0.000000 -35.030863 -7.389888 1.776050 -41.413848 -21.243591 0.387321 11.884306 -33.137707 -1.681099 0.000000 0.000000 0.000000 25.981854 13.066619 7.815158 40.600044 17.563694 -0.537458 -14.855386 36.786081 -2.670167 0.000000 0.000000 0.000000 
-0.004999 0.808453 0.020170 -0.747766 1.786144 17.890517 8.481561 -1.520045 -51.534301 -10.582726 4.719572 54.922338 10.002198 21.599266 -21.031571 0.000000 0.000000 0.000000 -5.802991 2.590462 -55.122976 13.410467 -7.893580 61.024200 -10.659214 -28.076815 -8.196858 0.000000 0.000000 0.000000 -4.267194 -0.459757 48.541727 5.618210 -0.017914 -31.075199 0.556635 1.214485 25.861668 -6.941541 5.059432 -40.664809 0.000000 0.000000 0.000000 -34.821137 -7.527606 2.138441 -40.666328 -21.654920 0.362929 12.446378 -33.283733 -1.830184 0.000000 0.000000 0.000000 25.461662 13.220072 7.701004 40.911946 17.870576 -0.422756 -14.968315 37.141823 -2.751401 0.000000 0.000000 0.000000 
